RBDS011runT45_grf
version=1
nRows=27
nColumns=19
inDegrees=no
endheader
time	ground_force_r_vx	ground_force_r_vy	ground_force_r_vz	ground_force_r_px	ground_force_r_py	ground_force_r_pz	ground_force_r_mx	ground_force_r_my	ground_force_r_mz	ground_force_l_vx	ground_force_l_vy	ground_force_l_vz	ground_force_l_px	ground_force_l_py	ground_force_l_pz	ground_force_l_mx	ground_force_l_my	ground_force_l_mz
     14.99900000	      0.00000000	      0.00000000	      0.00000000	      0.00000000	      0.00000000	      0.00000000	      0.00000000	      0.00000000	      0.00000000	    -50.19397941	    259.85004454	      9.89448930	      2.54096844	      0.00000000	      0.96319714	      0.00000000	      5.86358491	      0.00000000
     15.00000000	      0.00000000	      0.00000000	      0.00000000	      0.00000000	      0.00000000	      0.00000000	      0.00000000	      0.00000000	      0.00000000	    -55.08987597	    296.57422299	     12.53356197	      2.54180635	      0.00000000	      0.96358161	      0.00000000	      6.27991687	      0.00000000
     15.00100000	      0.00000000	      0.00000000	      0.00000000	      0.00000000	      0.00000000	      0.00000000	      0.00000000	      0.00000000	      0.00000000	    -60.11100885	    332.53500741	     15.02977179	      2.54256729	      0.00000000	      0.96395746	      0.00000000	      6.63956615	      0.00000000
     15.00200000	      0.00000000	      0.00000000	      0.00000000	      0.00000000	      0.00000000	      0.00000000	      0.00000000	      0.00000000	      0.00000000	    -65.13214172	    368.49579184	     17.52598162	      2.54332822	      0.00000000	      0.96433331	      0.00000000	      6.99921542	      0.00000000
     15.00300000	      0.00000000	      0.00000000	      0.00000000	      0.00000000	      0.00000000	      0.00000000	      0.00000000	      0.00000000	      0.00000000	    -70.15327460	    404.45657626	     20.02219145	      2.54408916	      0.00000000	      0.96470915	      0.00000000	      7.35886470	      0.00000000
     15.00400000	      0.00000000	      0.00000000	      0.00000000	      0.00000000	      0.00000000	      0.00000000	      0.00000000	      0.00000000	      0.00000000	    -75.25860961	    439.67398729	     22.39197458	      2.54477379	      0.00000000	      0.96507694	      0.00000000	      7.68436943	      0.00000000
     15.00500000	      0.00000000	      0.00000000	      0.00000000	      0.00000000	      0.00000000	      0.00000000	      0.00000000	      0.00000000	      0.00000000	    -80.40604569	    474.51971163	     24.69854437	      2.54542028	      0.00000000	      0.96544069	      0.00000000	      7.99280188	      0.00000000
     15.00600000	      0.00000000	      0.00000000	      0.00000000	      0.00000000	      0.00000000	      0.00000000	      0.00000000	      0.00000000	      0.00000000	    -85.55348176	    509.36543597	     27.00511415	      2.54606677	      0.00000000	      0.96580445	      0.00000000	      8.30123433	      0.00000000
     15.00700000	      0.00000000	      0.00000000	      0.00000000	      0.00000000	      0.00000000	      0.00000000	      0.00000000	      0.00000000	      0.00000000	    -90.73937010	    543.73873218	     29.23664158	      2.54666296	      0.00000000	      0.96616306	      0.00000000	      8.59452349	      0.00000000
     15.00800000	      0.00000000	      0.00000000	      0.00000000	      0.00000000	      0.00000000	      0.00000000	      0.00000000	      0.00000000	      0.00000000	    -96.00216296	    577.16717212	     31.31808431	      2.54715857	      0.00000000	      0.96651137	      0.00000000	      8.85752607	      0.00000000
     15.00900000	      0.00000000	      0.00000000	      0.00000000	      0.00000000	      0.00000000	      0.00000000	      0.00000000	      0.00000000	      0.00000000	   -101.26495581	    610.59561207	     33.39952703	      2.54765417	      0.00000000	      0.96685968	      0.00000000	      9.12052865	      0.00000000
     15.01000000	      0.00000000	      0.00000000	      0.00000000	      0.00000000	      0.00000000	      0.00000000	      0.00000000	      0.00000000	      0.00000000	   -106.52774867	    644.02405201	     35.48096976	      2.54814978	      0.00000000	      0.96720800	      0.00000000	      9.38353122	      0.00000000
     15.01100000	      0.00000000	      0.00000000	      0.00000000	      0.00000000	      0.00000000	      0.00000000	      0.00000000	      0.00000000	      0.00000000	   -111.88114558	    675.79088635	     37.31505868	      2.54846019	      0.00000000	      0.96753771	      0.00000000	      9.60720952	      0.00000000
     15.01200000	      0.00000000	      0.00000000	      0.00000000	      0.00000000	      0.00000000	      0.00000000	      0.00000000	      0.00000000	      0.00000000	   -117.23454249	    707.55772068	     39.14914761	      2.54877059	      0.00000000	      0.96786742	      0.00000000	      9.83088781	      0.00000000
     15.01300000	      0.00000000	      0.00000000	      0.00000000	      0.00000000	      0.00000000	      0.00000000	      0.00000000	      0.00000000	      0.00000000	   -122.58793940	    739.32455501	     40.98323653	      2.54908100	      0.00000000	      0.96819713	      0.00000000	     10.05456611	      0.00000000
     15.01400000	      0.00000000	      0.00000000	      0.00000000	      0.00000000	      0.00000000	      0.00000000	      0.00000000	      0.00000000	      0.00000000	   -127.97518452	    769.86328418	     42.64705406	      2.54924712	      0.00000000	      0.96851250	      0.00000000	     10.25631410	      0.00000000
     15.01500000	      0.00000000	      0.00000000	      0.00000000	      0.00000000	      0.00000000	      0.00000000	      0.00000000	      0.00000000	      0.00000000	   -133.37935374	    799.78796076	     44.22573590	      2.54934110	      0.00000000	      0.96882070	      0.00000000	     10.44709693	      0.00000000
     15.01600000	      0.00000000	      0.00000000	      0.00000000	      0.00000000	      0.00000000	      0.00000000	      0.00000000	      0.00000000	      0.00000000	   -138.78352297	    829.71263734	     45.80441774	      2.54943508	      0.00000000	      0.96912890	      0.00000000	     10.63787976	      0.00000000
     15.01700000	      0.00000000	      0.00000000	      0.00000000	      0.00000000	      0.00000000	      0.00000000	      0.00000000	      0.00000000	      0.00000000	   -144.18609455	    858.98525167	     47.29991258	      2.54944784	      0.00000000	      0.96942908	      0.00000000	     10.81994246	      0.00000000
     15.01800000	      0.00000000	      0.00000000	      0.00000000	      0.00000000	      0.00000000	      0.00000000	      0.00000000	      0.00000000	      0.00000000	   -149.58547085	    886.95374148	     48.62903342	      2.54929812	      0.00000000	      0.96971320	      0.00000000	     10.98456490	      0.00000000
     15.01900000	      0.00000000	      0.00000000	      0.00000000	      0.00000000	      0.00000000	      0.00000000	      0.00000000	      0.00000000	      0.00000000	   -154.98484714	    914.92223128	     49.95815426	      2.54914841	      0.00000000	      0.96999733	      0.00000000	     11.14918733	      0.00000000
     15.02000000	      0.00000000	      0.00000000	      0.00000000	      0.00000000	      0.00000000	      0.00000000	      0.00000000	      0.00000000	      0.00000000	   -160.38422344	    942.89072109	     51.28727510	      2.54899870	      0.00000000	      0.97028145	      0.00000000	     11.31380976	      0.00000000
     15.02100000	      0.00000000	      0.00000000	      0.00000000	      0.00000000	      0.00000000	      0.00000000	      0.00000000	      0.00000000	      0.00000000	   -165.70757982	    968.85482197	     52.38510523	      2.54858270	      0.00000000	      0.97053934	      0.00000000	     11.45923265	      0.00000000
     15.02200000	      0.00000000	      0.00000000	      0.00000000	      0.00000000	      0.00000000	      0.00000000	      0.00000000	      0.00000000	      0.00000000	   -171.03093620	    994.81892285	     53.48293536	      2.54816669	      0.00000000	      0.97079723	      0.00000000	     11.60465553	      0.00000000
     15.02300000	      0.00000000	      0.00000000	      0.00000000	      0.00000000	      0.00000000	      0.00000000	      0.00000000	      0.00000000	      0.00000000	   -176.35429258	   1020.78302373	     54.58076549	      2.54775069	      0.00000000	      0.97105511	      0.00000000	     11.75007842	      0.00000000
     15.02400000	      0.00000000	      0.00000000	      0.00000000	      0.00000000	      0.00000000	      0.00000000	      0.00000000	      0.00000000	      0.00000000	   -181.56965942	   1045.41981224	     55.54317285	      2.54714554	      0.00000000	      0.97129439	      0.00000000	     11.88736897	      0.00000000
     15.02500000	      0.00000000	      0.00000000	      0.00000000	      0.00000000	      0.00000000	      0.00000000	      0.00000000	      0.00000000	      0.00000000	   -186.73103148	   1069.39294458	     56.43786882	      2.54644581	      0.00000000	      0.97152436	      0.00000000	     12.02059334	      0.00000000
